<svg xmlns="http://www.w3.org/2000/svg" width="811" height="812" viewBox="0 0 811 812" version="1.1">
	<path d="M 338 94.635 C 334.815 96.894, 333.447 98.575, 330.900 103.362 C 325.862 112.830, 323.372 124.124, 318.052 161.639 C 314.365 187.630, 313.295 192.008, 310.628 191.994 C 310.007 191.991, 304.775 190.148, 299 187.898 C 271.726 177.272, 234.845 163.623, 219.955 158.645 C 181.891 145.919, 170 144.923, 170 154.458 C 170 162.917, 175.426 180.555, 180.018 187.019 C 181.002 188.404, 185.063 195.829, 189.042 203.519 C 193.021 211.209, 196.609 217.950, 197.014 218.500 C 197.419 219.050, 199.449 222.650, 201.523 226.500 C 209.032 240.432, 224.833 263.338, 227.693 264.436 C 228.469 264.733, 228.893 264.645, 228.636 264.239 C 211.637 237.405, 203.622 222.464, 199.110 209.196 C 195.646 199.011, 192 184.074, 192 180.065 C 192 172.611, 200.438 169.021, 209.758 172.509 C 226.600 178.812, 289.496 208.412, 297.500 213.801 C 299.700 215.283, 302.759 217.846, 304.298 219.497 C 306.709 222.084, 307.024 223.087, 306.569 226.737 C 305.659 234.054, 300.421 242.840, 292.105 251 C 284.164 258.792, 276.493 264.276, 254.500 277.884 C 247.350 282.309, 240.956 286.394, 240.292 286.964 C 239.628 287.534, 238.833 288, 238.525 288 C 237.905 288, 220.147 299.050, 210 305.750 C 206.425 308.110, 202.825 310.468, 202 310.989 C 201.175 311.510, 196.900 314.477, 192.500 317.583 C 166.060 336.244, 149.113 354.555, 138.961 375.434 C 131.245 391.303, 129.526 399.888, 127.936 430.500 C 126.320 461.608, 123.757 474.151, 114.383 496.836 C 108.636 510.744, 104.201 518.820, 93.771 534.371 C 88.285 542.550, 83.168 550.748, 82.398 552.589 C 80.612 556.865, 80.623 566.996, 82.423 573.754 C 85.496 585.299, 97.795 603.488, 108.498 612.316 C 116.416 618.847, 126.300 624.298, 140.614 630.028 C 154.613 635.633, 162.924 640.980, 172.803 650.738 C 182.683 660.498, 189.964 664.230, 206.650 668.086 C 215.979 670.242, 217.142 670.296, 229.490 669.145 C 236.645 668.479, 247 667.274, 252.500 666.468 C 258 665.662, 265.875 664.586, 270 664.077 C 281.198 662.696, 289.674 661.195, 297.667 659.177 C 303.557 657.690, 306.868 657.492, 316.254 658.067 C 322.755 658.464, 328.826 659.369, 330.348 660.166 C 332.773 661.437, 331.912 661.564, 321.072 661.534 C 314.501 661.515, 309.969 661.813, 311.003 662.196 C 313.645 663.174, 321.756 663.347, 326.500 662.526 C 329.461 662.014, 330.110 662.112, 329 662.902 C 328.175 663.489, 326.712 663.976, 325.750 663.985 C 324.788 663.993, 324 664.450, 324 665 C 324 665.550, 323.100 666, 322 666 C 320.444 666, 320 666.667, 320 669 C 320 671.833, 319.778 672, 316 672 L 312 672 312 676 L 312 680 308 680 L 304 680 304 684 L 304 688 296 688 L 288 688 288 696 L 288 704 285 704 C 282.939 704, 282 704.492, 282 705.571 C 282 707.932, 279.465 710, 276.571 710 C 275.157 710, 274 710.450, 274 711 C 274 711.550, 273.550 712, 273 712 C 272.450 712, 272 710.200, 272 708 C 272 704.222, 271.833 704, 269 704 C 266.167 704, 266 704.222, 266 708 L 266 712 261 712 L 256 712 256 716 L 256 720 248 720 L 240 720 240 728 L 240 736 232 736 C 225.394 736, 224 736.274, 224 737.571 C 224 739.390, 221.658 742, 220.026 742 C 218.576 742, 214 746.576, 214 748.026 C 214 750.740, 211.012 752, 204.571 752 L 198 752 198 757 L 198 762 192 762 L 186 762 186 765 L 186 768 178 768 L 170 768 170 772 C 170 774.200, 169.550 776, 169 776 C 168.450 776, 168 777.800, 168 780 L 168 784 159 784 L 150 784 150 792 L 150 800 139 800 L 128 800 128 804 L 128 808 124 808 C 120.667 808, 120 808.333, 120 810 C 120 811.996, 120.667 812, 465.612 812 L 811.224 812 810.546 622.750 C 809.975 463.280, 809.130 384.375, 808.202 403.723 L 808 407.946 775.463 408.223 C 747.966 408.457, 742.700 408.273, 741.463 407.036 C 740.453 406.025, 740 405.947, 740 406.786 C 740 407.454, 740.378 408, 740.839 408 C 741.697 408, 744.327 413.006, 743.765 413.568 C 743.595 413.739, 742.349 412.218, 740.997 410.189 C 737.124 404.377, 730.846 395.860, 727.273 391.570 C 725.473 389.409, 724 386.794, 724 385.761 C 724 384.728, 723.577 384.143, 723.060 384.463 C 722.543 384.782, 721.659 384.472, 721.095 383.772 C 720.531 383.072, 718.785 380.925, 717.214 379 C 715.644 377.075, 712.803 373.428, 710.901 370.897 C 708.999 368.365, 704.531 363.010, 700.972 358.997 C 687.226 343.502, 685.323 341.365, 679.625 335.031 C 673.315 328.016, 636.287 291.088, 626.418 281.966 C 611.328 268.020, 584.045 245.381, 567.314 232.925 C 561.366 228.497, 555.825 224.331, 555 223.669 C 547.919 217.982, 494.658 182.273, 469.500 166.345 C 461.405 161.220, 457.250 158.569, 419.500 134.453 C 407.950 127.074, 396.925 120.127, 395 119.014 C 393.075 117.901, 386.325 113.578, 380 109.407 C 357.930 94.852, 344.403 90.095, 338 94.635 M 393.727 149.606 C 393.219 150.114, 399.306 160.421, 401.045 162 C 401.348 162.275, 402.866 164.697, 404.417 167.381 C 416.947 189.062, 422.274 208.501, 419.926 223.986 C 417.880 237.484, 411.919 245.642, 399.228 252.311 C 386.396 259.054, 378.616 260.662, 333 266.002 C 323.375 267.129, 309.650 269.417, 302.500 271.087 C 295.350 272.757, 285.900 274.491, 281.500 274.939 C 273.845 275.720, 266.727 278.306, 254 284.932 C 214.910 305.282, 187.550 328.181, 154.150 368.500 C 150.609 372.774, 145.840 381.029, 143.581 386.794 C 138.991 398.505, 139.217 404.836, 145.034 427.500 C 150.133 447.367, 148.165 465.754, 139.054 483.354 C 133.476 494.128, 129.325 500.474, 122.929 508 C 116.698 515.334, 110.546 524.653, 108.947 529.184 C 107.854 532.279, 107.873 533.142, 109.064 534.577 C 110.316 536.086, 112.055 536.222, 123.991 535.741 C 139.473 535.118, 142.009 535.565, 143.776 539.232 C 146.326 544.526, 140.549 561.095, 131.125 575.516 C 124.234 586.061, 121.262 591.881, 120.079 597.145 C 118.776 602.944, 120.792 606.065, 130.758 613.673 C 141.268 621.696, 142.227 622.273, 160.500 631.559 C 181.968 642.469, 204.515 650.783, 224.500 655.158 C 231.746 656.744, 263.943 656.797, 269.042 655.231 C 270.944 654.646, 274.200 653.883, 276.278 653.534 C 278.670 653.132, 279.805 652.494, 279.373 651.795 C 278.946 651.103, 279.152 650.976, 279.926 651.454 C 281.601 652.490, 297.064 648.913, 296.295 647.668 C 295.963 647.131, 296.189 646.999, 296.797 647.374 C 298.194 648.238, 310.913 644.249, 313.250 642.214 C 314.212 641.376, 315 639.860, 315 638.845 C 315 636.749, 313.457 636.368, 312.593 638.250 C 312.277 638.938, 312.259 638.521, 312.553 637.324 C 312.854 636.098, 312.523 634.789, 311.794 634.324 C 311.082 633.871, 310.050 632.752, 309.500 631.839 C 308.950 630.925, 304.963 625.975, 300.640 620.839 C 296.317 615.702, 291.929 610.484, 290.890 609.242 C 288.679 606.601, 288.464 605, 290.319 605 C 291.657 605, 301.656 612.033, 303.510 614.277 C 304.066 614.950, 306.541 617.055, 309.010 618.956 C 311.480 620.857, 316.794 625.582, 320.820 629.456 C 324.846 633.330, 328.671 636.372, 329.320 636.216 C 329.969 636.060, 331.768 635.430, 333.317 634.817 C 335.437 633.978, 335.808 633.474, 334.817 632.785 C 333.931 632.169, 334.236 632.076, 335.750 632.502 C 336.988 632.850, 338 632.704, 338 632.178 C 338 631.653, 338.563 631.285, 339.250 631.361 C 339.938 631.438, 345.742 628.885, 352.149 625.690 C 364.858 619.351, 366.938 617.013, 362.728 613.799 C 360.318 611.959, 345.213 602.755, 343.529 602.100 C 342.963 601.880, 342.275 601.378, 342 600.985 C 341.725 600.592, 337.178 597.781, 331.896 594.740 C 318.831 587.216, 314.711 584.562, 313.113 582.636 C 311.938 581.220, 312.007 581.001, 313.628 581.006 C 314.657 581.010, 316.789 581.685, 318.364 582.506 C 319.940 583.328, 321.640 584, 322.142 584 C 324.283 584, 370.471 606.071, 372.431 608.031 C 372.964 608.564, 374.097 608.968, 374.950 608.930 C 376.049 608.880, 375.918 608.609, 374.500 608 C 372.866 607.298, 372.810 607.128, 374.193 607.070 C 375.125 607.032, 376.529 607.917, 377.314 609.038 C 378.558 610.813, 379.079 610.921, 381.370 609.877 C 382.817 609.218, 384 608.345, 384 607.937 C 384 607.529, 385.238 606.708, 386.750 606.111 C 390.658 604.570, 395.481 601.657, 395.854 600.612 C 396.028 600.123, 395.583 599.360, 394.864 598.916 C 394.146 598.472, 393.843 597.823, 394.192 597.474 C 395.086 596.581, 400 599.968, 400 601.478 C 400 602.946, 395.255 609.084, 390.908 613.238 C 388.063 615.957, 387.970 616.258, 389.604 617.453 C 391.462 618.811, 392.019 618.562, 396.037 614.573 C 399.083 611.549, 397.313 611.325, 394.170 614.337 C 392.625 615.817, 391.076 616.743, 390.728 616.395 C 389.982 615.649, 392.414 613, 393.845 613 C 394.388 613, 395.428 611.654, 396.156 610.009 C 397.008 608.085, 398.021 607.189, 398.995 607.499 C 399.829 607.763, 402.533 607.623, 405.005 607.187 C 409.214 606.445, 409.324 606.348, 406.729 605.673 C 405.153 605.263, 403.069 605.428, 401.894 606.057 C 399.039 607.585, 398.723 606.863, 400.600 603.100 C 401.485 601.326, 402.049 599.772, 401.854 599.646 C 392.096 593.332, 391.420 593.045, 392.416 595.641 C 392.943 597.014, 392.796 597.076, 391.523 596.019 C 390.685 595.324, 390 594.228, 390 593.584 C 390 592.419, 377.557 585.978, 375.333 585.992 C 374.692 585.997, 374.017 585.585, 373.833 585.078 C 373.278 583.541, 357.230 576.684, 331.500 566.991 C 315.891 561.110, 312.700 559.436, 315.240 558.461 C 320.662 556.381, 367.674 570.763, 390.925 581.615 C 395.008 583.521, 398.969 584.842, 399.726 584.551 C 400.484 584.261, 400.874 584.394, 400.594 584.848 C 400.314 585.302, 403.706 587.569, 408.132 589.886 C 412.558 592.203, 415.887 593.627, 415.531 593.050 C 415.142 592.421, 415.909 592, 417.441 592 C 418.848 592, 420 591.550, 420 591 C 420 590.450, 420.498 590, 421.107 590 C 421.716 590, 421.964 590.652, 421.658 591.449 C 421.286 592.418, 421.582 592.714, 422.551 592.342 C 423.473 591.988, 424 590.370, 424 587.893 C 424 585.752, 424.450 584, 425 584 C 425.550 584, 426 583.100, 426 582 C 426 580.900, 425.550 580, 425 580 C 424.450 580, 424 579.100, 424 578 C 424 576.167, 424.667 576, 432 576 L 440 576 440 572 L 440 568 444 568 L 448 568 448 564 L 448 560 456 560 L 464 560 464 556 L 464 552 468 552 L 472 552 472 546.429 C 472 540.695, 473.416 538, 476.429 538 C 477.293 538, 478 537.550, 478 537 C 478 536.450, 478.450 536, 479 536 C 479.550 536, 480 537.800, 480 540 C 480 542.970, 480.405 544, 481.571 544 C 483.390 544, 486 541.658, 486 540.026 C 486 538.576, 490.576 534, 492.026 534 C 493.658 534, 496 531.390, 496 529.571 C 496 528.405, 497.030 528, 500 528 L 504 528 504 524 L 504 520 509 520 C 511.750 520, 514 519.550, 514 519 C 514 518.450, 514.900 518, 516 518 C 517.152 518, 518 517.333, 518 516.429 C 518 513.823, 520.647 512, 524.429 512 C 527.929 512, 528 511.920, 528 508 L 528 504 532 504 L 536 504 536 500 L 536 496 544 496 L 552 496 552 488 L 552 480 564 480 L 576 480 576 472 L 576 464 584 464 L 592 464 592 460 L 592 456 596 456 L 600 456 600 452 L 600 448 608 448 L 616 448 616 444 L 616 440 620 440 L 624 440 624 434.500 L 624 429 628 429 C 630.889 429, 632 429.417, 632 430.500 C 632 431.583, 633.111 432, 636 432 L 640 432 640 428 L 640 424 648 424 C 652.667 424, 656 423.583, 656 423 C 656 422.450, 654.200 422, 652 422 C 648.222 422, 648 421.833, 648 419 C 648 416.167, 648.222 416, 652 416 L 656 416 656 412 L 656 408 664 408 L 672 408 672 412 L 672 416 687.571 416 C 704.399 416, 706 415.537, 706 410.676 C 706 408.529, 706.518 408.161, 710 407.829 C 713.607 407.485, 714 407.671, 714 409.724 C 714 410.976, 713.550 412, 713 412 C 712.450 412, 712 412.900, 712 414 C 712 415.100, 712.351 416, 712.779 416 C 713.208 416, 714.207 415.100, 715 414 C 715.793 412.900, 717.220 412, 718.171 412 C 721.768 412, 721.969 408.851, 718.645 404.582 C 713.114 397.478, 703.699 386.511, 702.836 386.167 C 702.376 385.983, 702 385.233, 702 384.500 C 702 383.767, 701.655 383.017, 701.233 382.833 C 700.811 382.650, 698.689 380.250, 696.517 377.500 C 694.346 374.750, 690.528 370.226, 688.034 367.447 C 685.540 364.668, 680.125 358.601, 676 353.965 C 662.678 338.990, 646.098 322.920, 627.411 306.871 C 624.613 304.467, 620.733 301.127, 618.790 299.450 C 616.848 297.772, 614.187 295.686, 612.879 294.815 C 611.571 293.944, 609.526 292.391, 608.335 291.365 C 601.050 285.090, 571.117 262.973, 549 247.524 C 516.711 224.970, 449.083 179.705, 415.848 158.403 C 403.397 150.422, 395.895 147.439, 393.727 149.606 M 808.272 380 C 808.272 382.475, 808.467 383.488, 808.706 382.250 C 808.944 381.012, 808.944 378.988, 808.706 377.750 C 808.467 376.512, 808.272 377.525, 808.272 380 M 701.079 390.583 C 701.127 391.748, 701.364 391.985, 701.683 391.188 C 701.972 390.466, 701.936 389.603, 701.604 389.271 C 701.272 388.939, 701.036 389.529, 701.079 390.583 M 708 396.882 C 708 397.432, 708.450 398.160, 709 398.500 C 709.550 398.840, 710 398.668, 710 398.118 C 710 397.568, 709.550 396.840, 709 396.500 C 708.450 396.160, 708 396.332, 708 396.882 M 221.500 401.610 C 214.080 402.703, 198.724 406.217, 195.523 407.555 C 191.437 409.262, 190.854 412.263, 193.862 416.115 C 194.887 417.427, 196.066 419.586, 196.482 420.914 C 197.586 424.434, 207.477 438.176, 214.446 445.872 C 223.525 455.898, 237.866 456.566, 255.573 447.789 C 263.795 443.714, 265.551 442.423, 272.987 434.987 C 281.194 426.780, 284.914 421.365, 286.003 416.038 C 286.566 413.285, 292.048 409.147, 296.250 408.303 C 297.762 407.999, 299 407.387, 299 406.942 C 299 404.287, 277.293 401.908, 249.500 401.518 C 235.750 401.325, 223.150 401.366, 221.500 401.610 M 737.250 402.250 C 737.478 402.938, 738.514 403.664, 739.551 403.865 C 741.182 404.181, 741.256 404.013, 740.096 402.615 C 738.510 400.704, 736.656 400.466, 737.250 402.250 M 743.158 405 C 743.158 406.375, 743.385 406.938, 743.662 406.250 C 743.940 405.563, 743.940 404.438, 743.662 403.750 C 743.385 403.063, 743.158 403.625, 743.158 405 M 715 404.878 C 715 405.495, 715.480 406, 716.067 406 C 716.680 406, 716.864 406.853, 716.500 408 C 715.742 410.390, 717.510 410.719, 718.417 408.357 C 718.763 407.453, 718.924 406.651, 718.774 406.574 C 718.623 406.497, 717.712 405.831, 716.750 405.095 C 715.585 404.203, 715 404.130, 715 404.878 M 722 412.059 C 722 412.641, 722.521 412.796, 723.158 412.403 C 723.951 411.912, 724.138 412.366, 723.751 413.844 C 723.171 416.061, 724.377 416.816, 725.527 414.956 C 726.221 413.834, 724.323 411, 722.878 411 C 722.395 411, 722 411.477, 722 412.059 M 746.005 416.271 C 746 417.055, 751.038 425, 751.539 425 C 751.690 425, 751.599 424.212, 751.338 423.250 C 750.814 421.321, 746.013 415.038, 746.005 416.271 M 728.695 420.058 C 728.356 421.353, 728.286 422.620, 728.540 422.873 C 728.793 423.126, 729 422.808, 729 422.167 C 729 421.525, 729.498 421, 730.107 421 C 730.716 421, 730.946 421.698, 730.618 422.552 C 730.277 423.442, 730.445 423.843, 731.011 423.493 C 732.341 422.671, 732.257 421.733, 730.655 419.543 C 729.379 417.797, 729.279 417.824, 728.695 420.058 M 753 426.378 C 753 426.585, 753.675 427.315, 754.500 428 C 755.729 429.020, 756 428.951, 756 427.622 C 756 426.730, 755.325 426, 754.500 426 C 753.675 426, 753 426.170, 753 426.378 M 738.612 431.531 C 739.525 432.923, 740.466 433.867, 740.705 433.629 C 741.298 433.035, 738.710 429, 737.736 429 C 737.306 429, 737.700 430.139, 738.612 431.531 M 756.079 431.583 C 756.127 432.748, 756.364 432.985, 756.683 432.188 C 756.972 431.466, 756.936 430.603, 756.604 430.271 C 756.272 429.939, 756.036 430.529, 756.079 431.583 M 736.158 433 C 736.158 434.375, 736.385 434.938, 736.662 434.250 C 736.940 433.563, 736.940 432.438, 736.662 431.750 C 736.385 431.063, 736.158 431.625, 736.158 433 M 512 513 C 512 513.550, 512.450 514, 513 514 C 513.550 514, 514 513.550, 514 513 C 514 512.450, 513.550 512, 513 512 C 512.450 512, 512 512.450, 512 513 M 404.500 585 C 403.181 585.567, 403.011 585.878, 404 585.914 C 404.825 585.945, 406.175 585.533, 407 585 C 408.828 583.819, 407.249 583.819, 404.500 585 M 409.694 585.639 C 408.895 586.438, 409.798 588, 411.059 588 C 411.577 588, 412 587.325, 412 586.500 C 412 584.954, 410.820 584.513, 409.694 585.639 M 418 594.500 C 418 595.325, 418.450 596, 419 596 C 419.550 596, 420 595.325, 420 594.500 C 420 593.675, 419.550 593, 419 593 C 418.450 593, 418 593.675, 418 594.500 M 421.500 597 C 421.840 597.550, 422.568 598, 423.118 598 C 423.668 598, 423.840 597.550, 423.500 597 C 423.160 596.450, 422.432 596, 421.882 596 C 421.332 596, 421.160 596.450, 421.500 597 M 392 599.589 C 392 600.097, 390.601 601.131, 388.891 601.888 C 386.248 603.058, 385.633 603.057, 384.796 601.882 C 384.044 600.827, 383.952 600.933, 384.406 602.332 C 384.733 603.339, 385 604.352, 385 604.582 C 385 604.812, 385.563 604.998, 386.250 604.995 C 388.132 604.988, 393.611 600.291, 392.750 599.423 C 392.337 599.007, 392 599.082, 392 599.589 M 403 600.792 C 403 601.833, 405.161 604, 406.200 604 C 407.673 604, 407.020 602.494, 405 601.232 C 403.900 600.545, 403 600.347, 403 600.792 M 374.500 602 C 374.840 602.550, 375.316 603, 375.559 603 C 375.802 603, 376 602.550, 376 602 C 376 601.450, 375.523 601, 374.941 601 C 374.359 601, 374.160 601.450, 374.500 602 M 409.152 604.545 C 410.060 605.473, 411.349 606.050, 412.015 605.828 C 412.682 605.606, 411.938 604.847, 410.363 604.141 C 407.683 602.940, 407.606 602.966, 409.152 604.545 M 434.500 605 C 434.840 605.550, 435.316 606, 435.559 606 C 435.802 606, 436 605.550, 436 605 C 436 604.450, 435.523 604, 434.941 604 C 434.359 604, 434.160 604.450, 434.500 605 M 354 612 C 354 612.550, 354.450 613, 355 613 C 355.550 613, 356 612.550, 356 612 C 356 611.450, 355.550 611, 355 611 C 354.450 611, 354 611.450, 354 612 M 423.570 612.886 C 423.269 613.374, 423.943 614.013, 425.068 614.308 C 426.746 614.746, 426.902 614.587, 425.935 613.421 C 424.554 611.757, 424.303 611.701, 423.570 612.886 M 362.079 616.583 C 362.127 617.748, 362.364 617.985, 362.683 617.188 C 362.972 616.466, 362.936 615.603, 362.604 615.271 C 362.272 614.939, 362.036 615.529, 362.079 616.583 M 397.441 616.468 C 396.374 617.276, 396.007 617.951, 396.628 617.968 C 397.248 617.986, 398.315 617.325, 399 616.500 C 400.581 614.595, 399.935 614.582, 397.441 616.468 M 393 619 C 393 619.550, 393.450 620, 394 620 C 394.550 620, 395 619.550, 395 619 C 395 618.450, 394.550 618, 394 618 C 393.450 618, 393 618.450, 393 619 M 408 625 C 408 625.550, 408.477 626, 409.059 626 C 409.641 626, 409.840 625.550, 409.500 625 C 409.160 624.450, 408.684 624, 408.441 624 C 408.198 624, 408 624.450, 408 625 M 339.813 628.683 C 340.534 628.972, 341.397 628.936, 341.729 628.604 C 342.061 628.272, 341.471 628.036, 340.417 628.079 C 339.252 628.127, 339.015 628.364, 339.813 628.683 M 364 635 C 362.625 636.076, 360.938 636.966, 360.250 636.978 C 359.563 636.990, 359 637.348, 359 637.773 C 359 638.198, 357.425 639.393, 355.500 640.430 C 353.575 641.467, 352 642.694, 352 643.157 C 352 644.656, 353.947 644.053, 356.118 641.882 C 357.849 640.151, 358.415 640.014, 359.212 641.132 C 359.960 642.180, 360.056 642.088, 359.621 640.738 C 359.146 639.263, 359.498 639.072, 361.777 639.569 C 363.816 640.013, 364.131 639.904, 363.029 639.135 C 360.763 637.554, 362.676 636.531, 365.496 637.816 C 367.018 638.510, 368 638.573, 368 637.979 C 368 637.440, 367.325 637, 366.500 637 C 365.675 637, 365 636.550, 365 636 C 365 635.450, 365.675 635, 366.500 635 C 367.325 635, 368 634.550, 368 634 C 368 632.513, 366.794 632.814, 364 635 M 310.813 640.683 C 311.534 640.972, 312.397 640.936, 312.729 640.604 C 313.061 640.272, 312.471 640.036, 311.417 640.079 C 310.252 640.127, 310.015 640.364, 310.813 640.683 M 348.074 645.411 C 346.438 647.382, 348.277 648.318, 352.123 647.473 C 354.357 646.982, 354.897 646.497, 354.099 645.699 C 353.300 644.900, 352.672 644.928, 351.800 645.800 C 350.065 647.535, 348.524 647.278, 350 645.500 C 350.694 644.663, 350.803 644, 350.245 644 C 349.695 644, 348.718 644.635, 348.074 645.411 M 343.079 651.583 C 343.127 652.748, 343.364 652.985, 343.683 652.188 C 343.972 651.466, 343.936 650.603, 343.604 650.271 C 343.272 649.939, 343.036 650.529, 343.079 651.583 M 348.170 659.015 C 349.373 660.643, 350.534 661.800, 350.748 661.585 C 351.364 660.969, 348.681 657.091, 347.262 656.547 C 346.558 656.277, 346.966 657.388, 348.170 659.015 M 351.079 657.583 C 351.127 658.748, 351.364 658.985, 351.683 658.188 C 351.972 657.466, 351.936 656.603, 351.604 656.271 C 351.272 655.939, 351.036 656.529, 351.079 657.583 M 302.510 660.016 C 302.856 660.575, 303.557 660.774, 304.069 660.457 C 305.456 659.600, 305.198 659, 303.441 659 C 302.584 659, 302.165 659.457, 302.510 660.016 M 314.750 659.723 C 316.538 659.945, 319.462 659.945, 321.250 659.723 C 323.038 659.502, 321.575 659.320, 318 659.320 C 314.425 659.320, 312.962 659.502, 314.750 659.723 M 306.813 663.683 C 307.534 663.972, 308.397 663.936, 308.729 663.604 C 309.061 663.272, 308.471 663.036, 307.417 663.079 C 306.252 663.127, 306.015 663.364, 306.813 663.683 M 354 666 C 354 666.550, 354.477 667, 355.059 667 C 355.641 667, 355.840 666.550, 355.500 666 C 355.160 665.450, 354.684 665, 354.441 665 C 354.198 665, 354 665.450, 354 666 M 336.628 667.528 C 335.692 669.966, 335.896 670.701, 337.036 669 C 337.893 667.720, 338.331 667.846, 340.020 669.861 C 341.109 671.159, 342 671.800, 342 671.285 C 342 670.770, 340.933 669.346, 339.628 668.120 C 337.541 666.160, 337.180 666.088, 336.628 667.528" stroke="none" fill="black" fill-rule="evenodd"/>
</svg>